<svg xmlns="http://www.w3.org/2000/svg" viewBox="0 0 24 24"><path fill="#fff" d="M19.6,6.5c2-0.2,4.4,1.8,4.4,1.8c-2.2-3.7-5.4-4.5-7.6-4.6c-0.9-0.5-1.8-0.8-2.8-0.9c1.4-1.2,4-1.6,4-1.6 c-3.4-0.8-6,0.4-7.7,1.7C8.7,3.2,7.5,3.7,6.5,4.4C6.3,2.4,8.3,0,8.3,0C4.6,2.2,3.8,5.4,3.7,7.6C3.3,8.5,3,9.4,2.8,10.4 c-1.2-1.4-1.6-4-1.6-4c-0.8,3.4,0.4,6,1.7,7.7c0.3,1.2,0.8,2.4,1.5,3.3c-2,0.2-4.4-1.8-4.4-1.8c2.2,3.7,5.4,4.5,7.6,4.6 c0.9,0.5,1.8,0.8,2.8,0.9c-1.4,1.2-4,1.6-4,1.6c3.4,0.8,6-0.4,7.7-1.7c1.2-0.3,2.4-0.8,3.3-1.5c0.2,2-1.8,4.4-1.8,4.4 c3.7-2.2,4.5-5.4,4.6-7.6c0.5-0.9,0.8-1.8,0.9-2.8c1.2,1.4,1.6,4,1.6,4c0.8-3.4-0.4-6-1.7-7.7C20.9,8.6,20.3,7.5,19.6,6.5z M12,19.4
	c-4.1,0-7.4-3.3-7.4-7.4S7.9,4.6,12,4.6s7.4,3.3,7.4,7.4S16.1,19.4,12,19.4z M17,9.9v3l-3,2v3c0,0-1,0.5-2,0.5s-2-0.5-2-0.5v-3l-3-2 v-3l2-2h1v4h4v-4h1L17,9.9z"/></svg>
